<?xml version="1.0" encoding="utf-8"?>
<!-- Generator: Adobe Illustrator 25.2.3, SVG Export Plug-In . SVG Version: 6.00 Build 0)  -->
<svg version="1.1" id="Layer_1" xmlns="http://www.w3.org/2000/svg" xmlns:xlink="http://www.w3.org/1999/xlink" x="0px" y="0px"
	 viewBox="0 0 978 581.1" style="enable-background:new 0 0 978 581.1;" xml:space="preserve">
<style type="text/css">
	.st0{fill:none;stroke:#FF0000;stroke-width:0.25;stroke-linecap:round;stroke-linejoin:round;stroke-miterlimit:10;}
</style>
<path class="st0" d="M415.3,24c2,0,3.5,1.6,3.5,3.5c0,2-1.6,3.5-3.5,3.5c-2,0-3.5-1.6-3.5-3.5C411.8,25.6,413.3,24,415.3,24z
	 M23.1,24c2,0,3.5,1.6,3.5,3.5c0,2-1.6,3.5-3.5,3.5s-3.5-1.6-3.5-3.5C19.6,25.6,21.2,24,23.1,24z M368.2,75.1h39.7V35.4h-39.7V75.1z
	 M314.2,75.1h39.7V35.4h-39.7V75.1z M152.2,35.4h39.7v39.7h-39.7L152.2,35.4z M260.2,75.1h39.7V35.4h-39.7V75.1z M98.2,75.1h39.7
	V35.4H98.2V75.1z M206.2,75.1h39.7V35.4h-39.7V75.1z M30.7,75.1h39.7V35.4H30.7V75.1z M381.5,93.3l6,3.4v6.9l-6,3.4l-6-3.4v-6.9
	L381.5,93.3z M152.2,89.4h39.7v39.7h-39.7L152.2,89.4z M206.2,129.1h39.7V89.4h-39.7V129.1z M260.2,129.1h39.7V89.4h-39.7V129.1z
	 M314.2,129.1h39.7V89.4h-39.7V129.1z M253,132.7c2,0,3.5,1.6,3.5,3.5c0,2-1.6,3.5-3.5,3.5c-2,0-3.5-1.6-3.5-3.5
	C249.5,134.3,251.1,132.7,253,132.7z M51,132.7c2,0,3.5,1.6,3.5,3.5c0,2-1.6,3.5-3.5,3.5s-3.5-1.6-3.5-3.5
	C47.4,134.3,49,132.7,51,132.7z M373.4,129.4l6,3.4v6.9l-6,3.4l-6-3.4v-6.9L373.4,129.4z M69.1,106.5l11.6,38l38-11.6L107,94.9
	L69.1,106.5z M260.2,183.1h39.7v-39.7h-39.7V183.1z M314.2,183.1h39.7v-39.7h-39.7V183.1z M152.2,143.4h39.7v39.7h-39.7L152.2,143.4
	z M206.2,183.1h39.7v-39.7h-39.7V183.1z M71.9,162.1l11.6,37.9l37.9-11.6l-11.6-37.9L71.9,162.1z M206.2,237.1h39.7v-39.7h-39.7
	V237.1z M152.2,197.4h39.7v39.7h-39.7L152.2,197.4z M260.2,237.1h39.7v-39.7h-39.7V237.1z M315.8,251.3l38,11.6l11.6-37.9l-38-11.6
	L315.8,251.3z M367.4,267.1l37.9,11.6l11.6-37.9l-38-11.6L367.4,267.1z M419,282.9l38,11.6l11.6-37.9l-37.9-11.6L419,282.9z
	 M453.1,301.9c2,0,3.5,1.6,3.5,3.5s-1.6,3.5-3.5,3.5c-2,0-3.5-1.6-3.5-3.5S451.1,301.9,453.1,301.9z M378.3,24.1
	c5.3,0,10.3-1.9,14.3-5.5c4-3.6,9.4-5.9,15.2-5.9c12.6,0,22.8,10.2,22.8,22.8c0,5.8-2.2,11.2-5.8,15.2c-3.5,3.9-5.5,9-5.4,14.3
	c0,0,0,0,0,0c0,10.1-1.1,20.1-3.2,30c-0.3,1.3-0.9,3.9-0.9,3.9l-15.3-4.7l-32.8,107.2c0,0,99.4,30.4,108.3,33.1
	c2.9,0.9,5.3,2.8,6.7,5.5c1.4,2.6,1.7,5.7,0.8,8.6c-4.8,15.6-13.6,44.4-18.4,60c-1.8,6-8.1,9.3-14.1,7.5L309,273
	c-2.9-0.9-5.3-2.8-6.7-5.5c-0.4-0.7-0.7-1.5-0.9-2.3c0,0,0-0.1,0-0.1c-2.7-9.8-11.6-16.6-21.8-16.6H152.1c-3,0-5.9-1.2-8-3.3
	c-2.1-2.1-3.3-5-3.3-8v-12c0-7.2-3.4-14-9.2-18.3c-5.8-4.3-13.3-5.6-20.2-3.5l-30,9.2c-5.7,1.7-11.9,1.2-17.2-1.7
	c-5.3-2.8-9.2-7.6-11-13.3c-10-32.6-27.7-90.8-27.7-90.8c-4.1-13.4-6.2-27.4-6.2-41.5c0-0.2,0-0.4,0-0.5c0-5.2-1.9-10.3-5.4-14.1
	c-3.6-4-5.9-9.4-5.9-15.2C8,23,18.2,12.8,30.8,12.8c5.9,0,11.2,2.2,15.2,5.9C49.9,22.1,55,24,60.2,24
	C109.2,24,329.1,24.1,378.3,24.1z"/>
<path class="st0" d="M892.7,22.1l6,3.4v6.9l-6,3.4l-6-3.4v-6.9L892.7,22.1z M500.5,22.1l6,3.4v6.9l-6,3.4l-6-3.4v-6.9L500.5,22.1z
	 M845.5,76.5h39.7V36.8h-39.7V76.5z M791.5,76.5h39.7V36.8h-39.7V76.5z M737.5,76.5h39.7V36.8h-39.7V76.5z M683.5,76.5h39.7V36.8
	h-39.7V76.5z M629.5,36.8h39.7v39.7h-39.7L629.5,36.8z M575.5,76.5h39.7V36.8h-39.7V76.5z M508,76.5h39.7V36.8H508V76.5z
	 M858.9,94.6l6,3.4v6.9l-6,3.4l-6-3.4v-6.9L858.9,94.6z M791.5,130.5h39.7V90.8h-39.7V130.5z M737.5,130.5h39.7V90.8h-39.7V130.5z
	 M629.5,90.8h39.7v39.7h-39.7L629.5,90.8z M683.5,130.5h39.7V90.8h-39.7V130.5z M528.3,130.8l6,3.4v6.9l-6,3.4l-6-3.4v-6.9
	L528.3,130.8z M730.4,130.8l6,3.4v6.9l-6,3.4l-6-3.4v-6.9L730.4,130.8z M850.7,130.8l6,3.4v6.9l-6,3.4l-6-3.4v-6.9L850.7,130.8z
	 M546.4,107.9l11.6,38l38-11.6l-11.6-37.9L546.4,107.9z M791.5,184.5h39.7v-39.7h-39.7V184.5z M737.5,184.5h39.7v-39.7h-39.7V184.5z
	 M683.5,184.5h39.7v-39.7h-39.7V184.5z M629.5,144.8h39.7v39.7h-39.7L629.5,144.8z M858.4,201.2l29.5-96.4l-6.9-2.1l-29.5,96.4
	L858.4,201.2z M549.3,163.5l11.6,37.9l37.9-11.6l-11.6-37.9L549.3,163.5z M899.7,213.9l29.5-96.4l-6.9-2.1l-29.5,96.4L899.7,213.9z
	 M683.5,238.5h39.7v-39.7h-39.7V238.5z M629.5,198.8h39.7v39.7h-39.7L629.5,198.8z M737.5,238.5h39.7v-39.7h-39.7V238.5z
	 M793.1,252.7l38,11.6l11.6-37.9l-38-11.6L793.1,252.7z M844.8,268.4l37.9,11.6l11.6-37.9l-38-11.6L844.8,268.4z M896.4,284.2
	l38,11.6l11.6-37.9L908,246.3L896.4,284.2z M930.4,299.9l6,3.4v6.9l-6,3.4l-6-3.4v-6.9L930.4,299.9z M863.3,19.9
	c3.7,0,7.3-1,10.5-2.8c3.3-1.9,7.2-3,11.3-3c12.6,0,22.8,10.2,22.8,22.8c0,4.1-1.1,8-3,11.3c-1.8,3.2-2.8,6.8-2.8,10.5
	c0,3.8,0,7.7,0,7.7c0,11.5-1.3,23-4,34.1c-0.1,0.5-0.3,1.4-0.3,1.4l38.5,11.8l-31.1,101.8c0,0,47,14.6,49.2,15.3
	c4.3,1.3,7.8,4.2,9.9,8.2c2.1,3.9,2.5,8.5,1.2,12.8c-4.8,15.6-13.6,44.4-18.4,60c-2.7,8.9-12.1,13.8-20.9,11.1l-141.5-43.2
	c-4.2-1.3-7.8-4.2-9.9-8.2c-0.6-1.1-1.1-2.3-1.4-3.5c0,0,0,0,0,0c-2-7.4-8.8-12.6-16.5-12.6H629.4c-4.4,0-8.7-1.8-11.8-4.9
	c-3.1-3.1-4.9-7.4-4.9-11.8c0,0,0-12,0-12c0-5.5-2.6-10.6-7-13.9c-4.4-3.3-10.1-4.2-15.3-2.6l-30,9.2c-7.1,2.2-14.8,1.4-21.4-2.1
	c-6.6-3.5-11.5-9.4-13.7-16.6c-10-32.6-27.7-90.8-27.7-90.8c-4.3-14-6.4-28.5-6.4-43.1v-8.1c0-3.7-1-7.3-2.8-10.5
	c-1.9-3.3-3-7.2-3-11.3c0-12.6,10.2-22.8,22.8-22.8c4.1,0,8,1.1,11.3,3c3.2,1.8,6.8,2.8,10.5,2.8C573.6,19.9,819.6,19.9,863.3,19.9z
	"/>
<path class="st0" d="M453.4,453.9l-6-3.4v-6.9l6-3.4l6,3.4v6.9L453.4,453.9z M479,547.5c1.9-2.9,2.9-6.4,2.9-9.9c0-9.8,0-21,0-26.3
	c0-6.3-5.1-11.3-11.3-11.3c-4.3,0-9.3,0-13.7,0c-3,0-5.9-1.2-8-3.3c-2.1-2.1-3.3-5-3.3-8v-4.7c0-1.1-0.2-2.2-0.5-3.3
	c-2-6.6-9.7-31.6-13.3-43.6c-1.1-3.6,0.9-7.3,4.5-8.4c0,0,0,0,0,0c3.6-1.1,5.6-4.9,4.5-8.4c-2.8-9-7.8-25.5-11.1-36.4
	c-1.8-6-8.2-9.4-14.2-7.5c-13.7,4.2-36.2,11-41.6,12.7c-0.8,0.2-1.6,0.4-2.5,0.4c-6.1,0-11-4.9-11-11c0-9.4,0-22.9,0-31.6
	c0-4.8-3.9-8.8-8.8-8.8H212c-4,0-7.7-2.1-9.7-5.5c-0.4-0.7-0.8-1.4-1.2-2.1c-1.4-2.4-3.7-4.2-6.4-5L84.9,291.7l-27.6-8.4v-8.8
	l-6-3.4l-6,3.4v7.8c-0.4,0.2-0.8,0.3-1.2,0.6c-2.7,1.4-4.7,3.9-5.6,6.8c-2.8,9.3-6.9,22.5-9.7,31.8c-1.9,6.1,1.6,12.5,7.6,14.3
	c9.1,2.8,31.3,9.6,43.4,13.3c4.5,1.4,7,6.1,5.6,10.6c-8.1,26.3-32.9,107.7-32.9,107.7s40.5,12.4,54.8,16.8c2.7,0.8,4.3,3.7,3.4,6.5
	l-0.5,1.6c-1.5,4.8-5.8,8-10.8,8c-3,0-5.8,1.2-7.9,3.3c-2.1,2.1-3.3,5-3.3,7.9c0,5.3,0,16.5,0,26.4c0,3.7,1.1,7.1,2.9,10l-8.1,4.7
	v6.9l6,3.4l12.5-7.2c1.7,0.5,3.4,0.7,5.2,0.7h356.6c1.8,0,3.6-0.3,5.2-0.8l12.6,7.3l6-3.4v-6.9L479,547.5z M60.4,370l9.1,2.8
	L38.4,474.7l38.8,11.9c0,0-0.2,1-0.3,1.5c-2,9.9-3,20-3,30.2v29.8c0,12.4,10.1,22.5,22.5,22.5h377.4c6,0,11.7-2.4,15.9-6.6
	c4.2-4.2,6.6-10,6.6-15.9v-30.1c0-15.2-2.3-30.2-6.7-44.8c0,0-17.8-58.1-27.7-90.8c-2.6-8.6-8.5-15.8-16.5-20
	c-7.9-4.2-17.2-5.1-25.8-2.5l-30,9.2c-3.5,1.1-7.3,0.4-10.2-1.8c-2.9-2.2-4.7-5.6-4.7-9.2v-12c0-6-2.4-11.7-6.6-15.9
	c-4.2-4.2-10-6.6-15.9-6.6c0,0-95.7,0-127.6,0c-5.1,0-9.5-3.4-10.9-8.3c-0.4-1.6-1.1-3.2-1.9-4.7c-2.8-5.3-7.6-9.2-13.3-11
	c-29.6-9-111.9-34.2-141.5-43.2c-11.9-3.6-24.5,3.1-28.1,15c-4.8,15.6-13.6,44.4-18.4,60c-1.7,5.7-1.2,11.9,1.7,17.2
	c2.8,5.3,7.6,9.2,13.3,11C31.9,361.3,51,367.1,60.4,370z"/>
<path class="st0" d="M560,559.2c-2,0-3.5-1.6-3.5-3.5c0-2,1.6-3.5,3.5-3.5c2,0,3.5,1.6,3.5,3.5C563.5,557.6,562,559.2,560,559.2z
	 M952.2,559.2c-2,0-3.5-1.6-3.5-3.5c0-2,1.6-3.5,3.5-3.5c2,0,3.5,1.6,3.5,3.5C955.7,557.6,954.1,559.2,952.2,559.2z M593.8,486.7
	c-2,0-3.5-1.6-3.5-3.5c0-2,1.6-3.5,3.5-3.5c2,0,3.5,1.6,3.5,3.5C597.3,485.1,595.7,486.7,593.8,486.7z M924.3,450.5
	c-2,0-3.5-1.6-3.5-3.5c0-2,1.6-3.5,3.5-3.5s3.5,1.6,3.5,3.5C927.9,448.9,926.3,450.5,924.3,450.5z M601.9,450.5
	c-2,0-3.5-1.6-3.5-3.5c0-2,1.6-3.5,3.5-3.5c2,0,3.5,1.6,3.5,3.5C605.5,448.9,603.9,450.5,601.9,450.5z M722.3,450.5
	c-2,0-3.5-1.6-3.5-3.5c0-2,1.6-3.5,3.5-3.5c2,0,3.5,1.6,3.5,3.5C725.8,448.9,724.2,450.5,722.3,450.5z M522.2,281.4
	c-2,0-3.5-1.6-3.5-3.5c0-2,1.6-3.5,3.5-3.5c2,0,3.5,1.6,3.5,3.5C525.8,279.8,524.2,281.4,522.2,281.4z M531.4,370l9.1,2.8
	l-31.1,101.9l38.8,11.9c0,0-0.2,1-0.3,1.5c-2,9.9-3,20-3,30.2v29.8c0,12.4,10.1,22.5,22.5,22.5h377.4c6,0,11.7-2.4,15.9-6.6
	c4.2-4.2,6.6-10,6.6-15.9v-30.1c0-15.2-2.3-30.2-6.7-44.8c0,0-17.8-58.1-27.7-90.8c-2.6-8.6-8.5-15.8-16.5-20
	c-7.9-4.2-17.2-5.1-25.8-2.5l-30,9.2c-3.5,1.1-7.3,0.4-10.2-1.8c-2.9-2.2-4.7-5.6-4.7-9.2v-12c0-6-2.4-11.7-6.6-15.9
	c-4.2-4.2-10-6.6-15.9-6.6c0,0-95.7,0-127.6,0c-5.1,0-9.5-3.4-10.9-8.3c-0.4-1.6-1.1-3.2-1.9-4.7c-2.8-5.3-7.6-9.2-13.3-11
	c-29.6-9-111.9-34.2-141.5-43.2c-11.9-3.6-24.5,3.1-28.1,15c-4.8,15.6-13.6,44.4-18.4,60c-1.7,5.7-1.2,11.9,1.7,17.2
	c2.8,5.3,7.6,9.2,13.3,11C502.9,361.3,521.9,367.1,531.4,370z"/>
<path class="st0" d="M457.6,43.7l6,3.4V54l-6,3.4l-6-3.4v-6.9L457.6,43.7z M449.4,79.8l6,3.4v6.9l-6,3.4l-6-3.4v-6.9L449.4,79.8z
	 M467.6,34.2c2.7,0,5.2,1.3,6.9,3.5c1.6,2.2,2.1,5,1.3,7.6c-5.6,18.4-17.1,56.1-25.9,84.6c-0.8,2.7-3.5,4.4-6.3,4
	c-2.8-0.4-4.9-2.8-4.9-5.7V42.6c0-2.2,0.9-4.4,2.5-5.9c1.6-1.6,3.7-2.5,5.9-2.5H467.6z"/>
<path class="st0" d="M463.2,194.6l-6-3.4v-6.9l6-3.4l6,3.4v6.9L463.2,194.6z M471.3,158.5l-6-3.4v-6.9l6-3.4l6,3.4v6.9L471.3,158.5z
	 M453.1,204.1c-2.7,0-5.2-1.3-6.9-3.5c-1.6-2.2-2.1-5-1.3-7.6c5.6-18.4,17.1-56.1,25.9-84.6c0.8-2.7,3.5-4.4,6.3-4
	c2.8,0.4,4.9,2.8,4.9,5.7v85.6c0,2.2-0.9,4.4-2.5,5.9c-1.6,1.6-3.7,2.5-5.9,2.5H453.1z"/>
<path class="st0" d="M123,348.1c2,0,3.5,1.6,3.5,3.5c0,2-1.6,3.5-3.5,3.5c-2,0-3.5-1.6-3.5-3.5C119.4,349.7,121,348.1,123,348.1z
	 M114.8,384.3c2,0,3.5,1.6,3.5,3.5s-1.6,3.5-3.5,3.5c-2,0-3.5-1.6-3.5-3.5S112.8,384.3,114.8,384.3z M155.1,343.7
	c0-2.2-0.9-4.4-2.5-6c-1.6-1.6-3.7-2.5-6-2.5c-9.5,0-24.7,0-34.1,0c-4.7,0-8.4,3.8-8.4,8.4v101.7c0,3.7,2.4,7,6,8.1
	c15.8,4.8,57.5,17.6,57.5,17.6l32.8-107.2c0,0-27-8.3-39.3-12C157.5,350.8,155.1,347.5,155.1,343.7L155.1,343.7z"/>
<path class="st0" d="M235.7,389.1l6,3.4v6.9l-6,3.4l-6-3.4v-6.9L235.7,389.1z M235.7,384.6c6.3,0,11.4,5.1,11.4,11.4
	c0,6.3-5.1,11.4-11.4,11.4c-6.3,0-11.4-5.1-11.4-11.4C224.3,389.7,229.4,384.6,235.7,384.6z"/>
<path class="st0" d="M267.6,389.1l6,3.4v6.9l-6,3.4l-6-3.4v-6.9L267.6,389.1z M267.6,384.6c6.3,0,11.4,5.1,11.4,11.4
	c0,6.3-5.1,11.4-11.4,11.4c-6.3,0-11.4-5.1-11.4-11.4C256.1,389.7,261.3,384.6,267.6,384.6z"/>
<path class="st0" d="M299.4,389.1l6,3.4v6.9l-6,3.4l-6-3.4v-6.9L299.4,389.1z M299.4,384.6c6.3,0,11.4,5.1,11.4,11.4
	c0,6.3-5.1,11.4-11.4,11.4c-6.3,0-11.4-5.1-11.4-11.4C288,389.7,293.1,384.6,299.4,384.6z"/>
<path class="st0" d="M267.6,359.7l6,3.4v6.9l-6,3.4l-6-3.4v-6.9L267.6,359.7z M267.6,355.2c6.3,0,11.4,5.1,11.4,11.4
	c0,6.3-5.1,11.4-11.4,11.4c-6.3,0-11.4-5.1-11.4-11.4C256.1,360.3,261.3,355.2,267.6,355.2z"/>
<path class="st0" d="M299.4,359.7l6,3.4v6.9l-6,3.4l-6-3.4v-6.9L299.4,359.7z M299.4,355.2c6.3,0,11.4,5.1,11.4,11.4
	c0,6.3-5.1,11.4-11.4,11.4c-6.3,0-11.4-5.1-11.4-11.4C288,360.3,293.1,355.2,299.4,355.2z"/>
<path class="st0" d="M235.7,418.6l6,3.4v6.9l-6,3.4l-6-3.4V422L235.7,418.6z M235.7,414c6.3,0,11.4,5.1,11.4,11.4
	s-5.1,11.4-11.4,11.4c-6.3,0-11.4-5.1-11.4-11.4S229.4,414,235.7,414z"/>
<path class="st0" d="M267.6,418.6l6,3.4v6.9l-6,3.4l-6-3.4V422L267.6,418.6z M267.6,414c6.3,0,11.4,5.1,11.4,11.4
	s-5.1,11.4-11.4,11.4c-6.3,0-11.4-5.1-11.4-11.4S261.3,414,267.6,414z"/>
<path class="st0" d="M299.4,418.6l6,3.4v6.9l-6,3.4l-6-3.4V422L299.4,418.6z M299.4,414c6.3,0,11.4,5.1,11.4,11.4
	s-5.1,11.4-11.4,11.4c-6.3,0-11.4-5.1-11.4-11.4S293.1,414,299.4,414z"/>
<path class="st0" d="M235.7,448l6,3.4v6.9l-6,3.4l-6-3.4v-6.9L235.7,448z M235.7,443.4c6.3,0,11.4,5.1,11.4,11.4
	s-5.1,11.4-11.4,11.4c-6.3,0-11.4-5.1-11.4-11.4S229.4,443.4,235.7,443.4z"/>
<path class="st0" d="M235.7,359.7l6,3.4v6.9l-6,3.4l-6-3.4v-6.9L235.7,359.7z M235.7,355.2c6.3,0,11.4,5.1,11.4,11.4
	c0,6.3-5.1,11.4-11.4,11.4c-6.3,0-11.4-5.1-11.4-11.4C224.3,360.3,229.4,355.2,235.7,355.2z"/>
</svg>
